<svg xmlns="http://www.w3.org/2000/svg" xmlns:xlink="http://www.w3.org/1999/xlink" width="1920" zoomAndPan="magnify" viewBox="0 0 1440 809.999993" height="1080" preserveAspectRatio="xMidYMid meet" version="1.0"><defs><clipPath id="e04f9a6be9"><path d="M 303.945312 405 L 1135.695312 405 L 1135.695312 539 L 303.945312 539 Z M 303.945312 405 " clip-rule="nonzero"/></clipPath></defs><g clip-path="url(#e04f9a6be9)"><path fill="#eff0f2" d="M 1135.695312 420.878906 C 1135.695312 412.402344 1128.832031 405.535156 1120.398438 405.535156 L 319.261719 405.535156 C 310.828125 405.535156 303.964844 412.402344 303.964844 420.878906 C 303.964844 429.320312 310.828125 436.1875 319.261719 436.1875 C 323.628906 436.1875 327.589844 434.34375 330.355469 431.371094 C 333.976562 447.296875 348.210938 459.15625 365.183594 459.15625 C 377.335938 459.15625 388.089844 453.105469 394.542969 443.8125 C 400.996094 453.105469 411.71875 459.15625 423.871094 459.15625 C 429.023438 459.15625 433.941406 458.0625 438.347656 456.078125 C 445.925781 472.960938 462.898438 484.71875 482.5625 484.71875 C 494.476562 484.71875 505.367188 480.378906 513.835938 473.234375 C 523.15625 483.421875 536.539062 489.808594 551.425781 489.808594 C 563.683594 489.808594 574.914062 485.503906 583.722656 478.292969 C 594.988281 513.152344 627.660156 538.339844 666.246094 538.339844 C 702.027344 538.339844 732.71875 516.675781 746 485.746094 C 758.53125 499.242188 776.457031 507.6875 796.359375 507.6875 C 823.023438 507.6875 846.171875 492.511719 857.609375 470.296875 C 869.011719 492.511719 892.160156 507.6875 918.824219 507.6875 C 946.445312 507.6875 970.277344 491.417969 981.234375 467.941406 C 987.140625 470.503906 993.628906 471.9375 1000.457031 471.9375 C 1020.773438 471.9375 1038.152344 459.464844 1045.390625 441.691406 C 1052.523438 447.84375 1061.777344 451.5 1071.917969 451.5 C 1087.554688 451.5 1101.109375 442.71875 1107.96875 429.800781 C 1110.734375 433.660156 1115.242188 436.1875 1120.398438 436.1875 C 1128.832031 436.191406 1135.695312 429.324219 1135.695312 420.878906 Z M 1135.695312 420.878906 " fill-opacity="1" fill-rule="nonzero"/></g></svg>