<svg xmlns="http://www.w3.org/2000/svg" xmlns:xlink="http://www.w3.org/1999/xlink" width="1920" zoomAndPan="magnify" viewBox="0 0 1440 809.999993" height="1080" preserveAspectRatio="xMidYMid meet" version="1.0"><defs><clipPath id="0095626860"><path d="M 304.296875 354.078125 L 330 354.078125 L 330 380 L 304.296875 380 Z M 304.296875 354.078125 " clip-rule="nonzero"/></clipPath><clipPath id="d8b6361e4c"><path d="M 329 354.078125 L 355 354.078125 L 355 380 L 329 380 Z M 329 354.078125 " clip-rule="nonzero"/></clipPath><clipPath id="0d073abcee"><path d="M 354 354.078125 L 380 354.078125 L 380 380 L 354 380 Z M 354 354.078125 " clip-rule="nonzero"/></clipPath><clipPath id="7ff749479d"><path d="M 379 354.078125 L 406 354.078125 L 406 380 L 379 380 Z M 379 354.078125 " clip-rule="nonzero"/></clipPath><clipPath id="80fcc31445"><path d="M 405 354.078125 L 431 354.078125 L 431 380 L 405 380 Z M 405 354.078125 " clip-rule="nonzero"/></clipPath><clipPath id="65b61ee276"><path d="M 430 354.078125 L 456 354.078125 L 456 380 L 430 380 Z M 430 354.078125 " clip-rule="nonzero"/></clipPath><clipPath id="11257de1d0"><path d="M 455 354.078125 L 481 354.078125 L 481 380 L 455 380 Z M 455 354.078125 " clip-rule="nonzero"/></clipPath><clipPath id="b85deb6365"><path d="M 480 354.078125 L 507 354.078125 L 507 380 L 480 380 Z M 480 354.078125 " clip-rule="nonzero"/></clipPath><clipPath id="b9fbb1dc0c"><path d="M 505 354.078125 L 532 354.078125 L 532 380 L 505 380 Z M 505 354.078125 " clip-rule="nonzero"/></clipPath><clipPath id="44b3cb5013"><path d="M 531 354.078125 L 557 354.078125 L 557 380 L 531 380 Z M 531 354.078125 " clip-rule="nonzero"/></clipPath><clipPath id="a79a480bc1"><path d="M 556 354.078125 L 582 354.078125 L 582 380 L 556 380 Z M 556 354.078125 " clip-rule="nonzero"/></clipPath><clipPath id="38982a1078"><path d="M 581 354.078125 L 607 354.078125 L 607 380 L 581 380 Z M 581 354.078125 " clip-rule="nonzero"/></clipPath><clipPath id="bdfda87519"><path d="M 606 354.078125 L 633 354.078125 L 633 380 L 606 380 Z M 606 354.078125 " clip-rule="nonzero"/></clipPath><clipPath id="e9ddc1ab11"><path d="M 632 354.078125 L 658 354.078125 L 658 380 L 632 380 Z M 632 354.078125 " clip-rule="nonzero"/></clipPath><clipPath id="5de7da5551"><path d="M 657 354.078125 L 683 354.078125 L 683 380 L 657 380 Z M 657 354.078125 " clip-rule="nonzero"/></clipPath><clipPath id="9ebfe0d105"><path d="M 682 354.078125 L 708 354.078125 L 708 380 L 682 380 Z M 682 354.078125 " clip-rule="nonzero"/></clipPath><clipPath id="749a70f735"><path d="M 707 354.078125 L 733 354.078125 L 733 380 L 707 380 Z M 707 354.078125 " clip-rule="nonzero"/></clipPath><clipPath id="44ab55c4b3"><path d="M 732 354.078125 L 759 354.078125 L 759 380 L 732 380 Z M 732 354.078125 " clip-rule="nonzero"/></clipPath><clipPath id="25363f33a3"><path d="M 757 354.078125 L 784 354.078125 L 784 380 L 757 380 Z M 757 354.078125 " clip-rule="nonzero"/></clipPath><clipPath id="dbe4910fbd"><path d="M 783 354.078125 L 809 354.078125 L 809 380 L 783 380 Z M 783 354.078125 " clip-rule="nonzero"/></clipPath><clipPath id="0e2b50e047"><path d="M 808 354.078125 L 834 354.078125 L 834 380 L 808 380 Z M 808 354.078125 " clip-rule="nonzero"/></clipPath><clipPath id="e35b37eef2"><path d="M 833 354.078125 L 859 354.078125 L 859 380 L 833 380 Z M 833 354.078125 " clip-rule="nonzero"/></clipPath><clipPath id="3920c65ebb"><path d="M 858 354.078125 L 885 354.078125 L 885 380 L 858 380 Z M 858 354.078125 " clip-rule="nonzero"/></clipPath><clipPath id="ef120809fc"><path d="M 884 354.078125 L 910 354.078125 L 910 380 L 884 380 Z M 884 354.078125 " clip-rule="nonzero"/></clipPath><clipPath id="202371558c"><path d="M 909 354.078125 L 935 354.078125 L 935 380 L 909 380 Z M 909 354.078125 " clip-rule="nonzero"/></clipPath><clipPath id="5a553ce7d6"><path d="M 934 354.078125 L 960 354.078125 L 960 380 L 934 380 Z M 934 354.078125 " clip-rule="nonzero"/></clipPath><clipPath id="d389bfe161"><path d="M 959 354.078125 L 985 354.078125 L 985 380 L 959 380 Z M 959 354.078125 " clip-rule="nonzero"/></clipPath><clipPath id="cdf115ecef"><path d="M 984 354.078125 L 1011 354.078125 L 1011 380 L 984 380 Z M 984 354.078125 " clip-rule="nonzero"/></clipPath><clipPath id="bff0743be6"><path d="M 1009 354.078125 L 1036 354.078125 L 1036 380 L 1009 380 Z M 1009 354.078125 " clip-rule="nonzero"/></clipPath><clipPath id="9ba4b96094"><path d="M 1035 354.078125 L 1061 354.078125 L 1061 380 L 1035 380 Z M 1035 354.078125 " clip-rule="nonzero"/></clipPath><clipPath id="d7f6900375"><path d="M 1060 354.078125 L 1086 354.078125 L 1086 380 L 1060 380 Z M 1060 354.078125 " clip-rule="nonzero"/></clipPath><clipPath id="91e407be7e"><path d="M 1085 354.078125 L 1111 354.078125 L 1111 380 L 1085 380 Z M 1085 354.078125 " clip-rule="nonzero"/></clipPath><clipPath id="46dec738eb"><path d="M 1110 354.078125 L 1136.046875 354.078125 L 1136.046875 380 L 1110 380 Z M 1110 354.078125 " clip-rule="nonzero"/></clipPath><clipPath id="de556a1089"><path d="M 304.296875 379 L 330 379 L 330 406 L 304.296875 406 Z M 304.296875 379 " clip-rule="nonzero"/></clipPath><clipPath id="bc1481ddd7"><path d="M 1110 379 L 1136.046875 379 L 1136.046875 406 L 1110 406 Z M 1110 379 " clip-rule="nonzero"/></clipPath><clipPath id="ae58569943"><path d="M 304.296875 404 L 330 404 L 330 431 L 304.296875 431 Z M 304.296875 404 " clip-rule="nonzero"/></clipPath><clipPath id="cb68451f26"><path d="M 1110 404 L 1136.046875 404 L 1136.046875 431 L 1110 431 Z M 1110 404 " clip-rule="nonzero"/></clipPath><clipPath id="9027ce9969"><path d="M 304.296875 430 L 330 430 L 330 456 L 304.296875 456 Z M 304.296875 430 " clip-rule="nonzero"/></clipPath><clipPath id="27b08d6053"><path d="M 1110 430 L 1136.046875 430 L 1136.046875 456 L 1110 456 Z M 1110 430 " clip-rule="nonzero"/></clipPath><clipPath id="6d4ad6f84e"><path d="M 304.296875 302.402344 L 330 302.402344 L 330 329 L 304.296875 329 Z M 304.296875 302.402344 " clip-rule="nonzero"/></clipPath><clipPath id="83f081f6a0"><path d="M 329 302.402344 L 355 302.402344 L 355 329 L 329 329 Z M 329 302.402344 " clip-rule="nonzero"/></clipPath><clipPath id="7ce8a6939f"><path d="M 354 302.402344 L 380 302.402344 L 380 329 L 354 329 Z M 354 302.402344 " clip-rule="nonzero"/></clipPath><clipPath id="daf047e704"><path d="M 379 302.402344 L 406 302.402344 L 406 329 L 379 329 Z M 379 302.402344 " clip-rule="nonzero"/></clipPath><clipPath id="18a3d5ffb2"><path d="M 405 302.402344 L 431 302.402344 L 431 329 L 405 329 Z M 405 302.402344 " clip-rule="nonzero"/></clipPath><clipPath id="a9ead31df4"><path d="M 430 302.402344 L 456 302.402344 L 456 329 L 430 329 Z M 430 302.402344 " clip-rule="nonzero"/></clipPath><clipPath id="edd1a4d37a"><path d="M 455 302.402344 L 481 302.402344 L 481 329 L 455 329 Z M 455 302.402344 " clip-rule="nonzero"/></clipPath><clipPath id="8749587f4a"><path d="M 480 302.402344 L 507 302.402344 L 507 329 L 480 329 Z M 480 302.402344 " clip-rule="nonzero"/></clipPath><clipPath id="4caee1a22c"><path d="M 505 302.402344 L 532 302.402344 L 532 329 L 505 329 Z M 505 302.402344 " clip-rule="nonzero"/></clipPath><clipPath id="da4415122f"><path d="M 531 302.402344 L 557 302.402344 L 557 329 L 531 329 Z M 531 302.402344 " clip-rule="nonzero"/></clipPath><clipPath id="e6eff4ec75"><path d="M 556 302.402344 L 582 302.402344 L 582 329 L 556 329 Z M 556 302.402344 " clip-rule="nonzero"/></clipPath><clipPath id="f724306c1b"><path d="M 581 302.402344 L 607 302.402344 L 607 329 L 581 329 Z M 581 302.402344 " clip-rule="nonzero"/></clipPath><clipPath id="32696cdc2e"><path d="M 606 302.402344 L 633 302.402344 L 633 329 L 606 329 Z M 606 302.402344 " clip-rule="nonzero"/></clipPath><clipPath id="58a6e4c086"><path d="M 632 302.402344 L 658 302.402344 L 658 329 L 632 329 Z M 632 302.402344 " clip-rule="nonzero"/></clipPath><clipPath id="66409e0ccb"><path d="M 657 302.402344 L 683 302.402344 L 683 329 L 657 329 Z M 657 302.402344 " clip-rule="nonzero"/></clipPath><clipPath id="3154db8732"><path d="M 682 302.402344 L 708 302.402344 L 708 329 L 682 329 Z M 682 302.402344 " clip-rule="nonzero"/></clipPath><clipPath id="79e1435aaf"><path d="M 707 302.402344 L 733 302.402344 L 733 329 L 707 329 Z M 707 302.402344 " clip-rule="nonzero"/></clipPath><clipPath id="9bf74b177b"><path d="M 732 302.402344 L 759 302.402344 L 759 329 L 732 329 Z M 732 302.402344 " clip-rule="nonzero"/></clipPath><clipPath id="06547fa667"><path d="M 757 302.402344 L 784 302.402344 L 784 329 L 757 329 Z M 757 302.402344 " clip-rule="nonzero"/></clipPath><clipPath id="fb6ace13a6"><path d="M 783 302.402344 L 809 302.402344 L 809 329 L 783 329 Z M 783 302.402344 " clip-rule="nonzero"/></clipPath><clipPath id="cd722ddca1"><path d="M 808 302.402344 L 834 302.402344 L 834 329 L 808 329 Z M 808 302.402344 " clip-rule="nonzero"/></clipPath><clipPath id="e527fa90a9"><path d="M 833 302.402344 L 859 302.402344 L 859 329 L 833 329 Z M 833 302.402344 " clip-rule="nonzero"/></clipPath><clipPath id="00e7c6ce85"><path d="M 858 302.402344 L 885 302.402344 L 885 329 L 858 329 Z M 858 302.402344 " clip-rule="nonzero"/></clipPath><clipPath id="8e8b4fad33"><path d="M 884 302.402344 L 910 302.402344 L 910 329 L 884 329 Z M 884 302.402344 " clip-rule="nonzero"/></clipPath><clipPath id="3e5992197c"><path d="M 909 302.402344 L 935 302.402344 L 935 329 L 909 329 Z M 909 302.402344 " clip-rule="nonzero"/></clipPath><clipPath id="8912b66153"><path d="M 934 302.402344 L 960 302.402344 L 960 329 L 934 329 Z M 934 302.402344 " clip-rule="nonzero"/></clipPath><clipPath id="0b77ec240c"><path d="M 959 302.402344 L 985 302.402344 L 985 329 L 959 329 Z M 959 302.402344 " clip-rule="nonzero"/></clipPath><clipPath id="6ee67b9f3f"><path d="M 984 302.402344 L 1011 302.402344 L 1011 329 L 984 329 Z M 984 302.402344 " clip-rule="nonzero"/></clipPath><clipPath id="b66f1566dc"><path d="M 1009 302.402344 L 1036 302.402344 L 1036 329 L 1009 329 Z M 1009 302.402344 " clip-rule="nonzero"/></clipPath><clipPath id="348eb0244a"><path d="M 1035 302.402344 L 1061 302.402344 L 1061 329 L 1035 329 Z M 1035 302.402344 " clip-rule="nonzero"/></clipPath><clipPath id="16e0d41a27"><path d="M 1060 302.402344 L 1086 302.402344 L 1086 329 L 1060 329 Z M 1060 302.402344 " clip-rule="nonzero"/></clipPath><clipPath id="5cf0128524"><path d="M 1085 302.402344 L 1111 302.402344 L 1111 329 L 1085 329 Z M 1085 302.402344 " clip-rule="nonzero"/></clipPath><clipPath id="6ceb50fac4"><path d="M 1110 302.402344 L 1136.046875 302.402344 L 1136.046875 329 L 1110 329 Z M 1110 302.402344 " clip-rule="nonzero"/></clipPath><clipPath id="df864120c8"><path d="M 304.296875 328 L 330 328 L 330 354 L 304.296875 354 Z M 304.296875 328 " clip-rule="nonzero"/></clipPath><clipPath id="0c0c01decc"><path d="M 1110 328 L 1136.046875 328 L 1136.046875 354 L 1110 354 Z M 1110 328 " clip-rule="nonzero"/></clipPath><clipPath id="f3f2188366"><path d="M 304.296875 353 L 330 353 L 330 379 L 304.296875 379 Z M 304.296875 353 " clip-rule="nonzero"/></clipPath><clipPath id="d0cad17ba9"><path d="M 1110 353 L 1136.046875 353 L 1136.046875 379 L 1110 379 Z M 1110 353 " clip-rule="nonzero"/></clipPath><clipPath id="b149c6235d"><path d="M 304.296875 378 L 330 378 L 330 404 L 304.296875 404 Z M 304.296875 378 " clip-rule="nonzero"/></clipPath><clipPath id="b30d3e67f9"><path d="M 1110 378 L 1136.046875 378 L 1136.046875 404 L 1110 404 Z M 1110 378 " clip-rule="nonzero"/></clipPath></defs><rect x="-144" width="1728" fill="#ffffff" y="-80.999999" height="971.999992" fill-opacity="1"/><rect x="-144" width="1728" fill="#000000" y="-80.999999" height="971.999992" fill-opacity="1"/><g clip-path="url(#0095626860)"><path fill="#000000" d="M 304.296875 354.527344 L 329.582031 354.527344 L 329.582031 379.84375 L 304.296875 379.84375 Z M 304.296875 354.527344 " fill-opacity="1" fill-rule="nonzero"/></g><g clip-path="url(#d8b6361e4c)"><path fill="#f6f6f6" d="M 329.582031 354.527344 L 354.867188 354.527344 L 354.867188 379.84375 L 329.582031 379.84375 Z M 329.582031 354.527344 " fill-opacity="1" fill-rule="nonzero"/></g><g clip-path="url(#0d073abcee)"><path fill="#000000" d="M 354.699219 354.527344 L 379.984375 354.527344 L 379.984375 379.84375 L 354.699219 379.84375 Z M 354.699219 354.527344 " fill-opacity="1" fill-rule="nonzero"/></g><g clip-path="url(#7ff749479d)"><path fill="#f6f6f6" d="M 379.984375 354.527344 L 405.269531 354.527344 L 405.269531 379.84375 L 379.984375 379.84375 Z M 379.984375 354.527344 " fill-opacity="1" fill-rule="nonzero"/></g><g clip-path="url(#80fcc31445)"><path fill="#000000" d="M 405.105469 354.527344 L 430.390625 354.527344 L 430.390625 379.84375 L 405.105469 379.84375 Z M 405.105469 354.527344 " fill-opacity="1" fill-rule="nonzero"/></g><g clip-path="url(#65b61ee276)"><path fill="#f6f6f6" d="M 430.390625 354.527344 L 455.675781 354.527344 L 455.675781 379.84375 L 430.390625 379.84375 Z M 430.390625 354.527344 " fill-opacity="1" fill-rule="nonzero"/></g><g clip-path="url(#11257de1d0)"><path fill="#000000" d="M 455.507812 354.527344 L 480.792969 354.527344 L 480.792969 379.84375 L 455.507812 379.84375 Z M 455.507812 354.527344 " fill-opacity="1" fill-rule="nonzero"/></g><g clip-path="url(#b85deb6365)"><path fill="#f6f6f6" d="M 480.792969 354.527344 L 506.078125 354.527344 L 506.078125 379.84375 L 480.792969 379.84375 Z M 480.792969 354.527344 " fill-opacity="1" fill-rule="nonzero"/></g><g clip-path="url(#b9fbb1dc0c)"><path fill="#000000" d="M 505.910156 354.527344 L 531.195312 354.527344 L 531.195312 379.84375 L 505.910156 379.84375 Z M 505.910156 354.527344 " fill-opacity="1" fill-rule="nonzero"/></g><g clip-path="url(#44b3cb5013)"><path fill="#f6f6f6" d="M 531.195312 354.527344 L 556.480469 354.527344 L 556.480469 379.84375 L 531.195312 379.84375 Z M 531.195312 354.527344 " fill-opacity="1" fill-rule="nonzero"/></g><g clip-path="url(#a79a480bc1)"><path fill="#000000" d="M 556.316406 354.527344 L 581.601562 354.527344 L 581.601562 379.84375 L 556.316406 379.84375 Z M 556.316406 354.527344 " fill-opacity="1" fill-rule="nonzero"/></g><g clip-path="url(#38982a1078)"><path fill="#f6f6f6" d="M 581.601562 354.527344 L 606.886719 354.527344 L 606.886719 379.84375 L 581.601562 379.84375 Z M 581.601562 354.527344 " fill-opacity="1" fill-rule="nonzero"/></g><g clip-path="url(#bdfda87519)"><path fill="#000000" d="M 606.71875 354.527344 L 632.003906 354.527344 L 632.003906 379.84375 L 606.71875 379.84375 Z M 606.71875 354.527344 " fill-opacity="1" fill-rule="nonzero"/></g><g clip-path="url(#e9ddc1ab11)"><path fill="#f6f6f6" d="M 632.003906 354.527344 L 657.289062 354.527344 L 657.289062 379.84375 L 632.003906 379.84375 Z M 632.003906 354.527344 " fill-opacity="1" fill-rule="nonzero"/></g><g clip-path="url(#5de7da5551)"><path fill="#000000" d="M 657.125 354.527344 L 682.410156 354.527344 L 682.410156 379.84375 L 657.125 379.84375 Z M 657.125 354.527344 " fill-opacity="1" fill-rule="nonzero"/></g><g clip-path="url(#9ebfe0d105)"><path fill="#f6f6f6" d="M 682.410156 354.527344 L 707.695312 354.527344 L 707.695312 379.84375 L 682.410156 379.84375 Z M 682.410156 354.527344 " fill-opacity="1" fill-rule="nonzero"/></g><g clip-path="url(#749a70f735)"><path fill="#000000" d="M 707.527344 354.527344 L 732.8125 354.527344 L 732.8125 379.84375 L 707.527344 379.84375 Z M 707.527344 354.527344 " fill-opacity="1" fill-rule="nonzero"/></g><g clip-path="url(#44ab55c4b3)"><path fill="#f6f6f6" d="M 732.8125 354.527344 L 758.097656 354.527344 L 758.097656 379.84375 L 732.8125 379.84375 Z M 732.8125 354.527344 " fill-opacity="1" fill-rule="nonzero"/></g><g clip-path="url(#25363f33a3)"><path fill="#000000" d="M 757.933594 354.527344 L 783.21875 354.527344 L 783.21875 379.84375 L 757.933594 379.84375 Z M 757.933594 354.527344 " fill-opacity="1" fill-rule="nonzero"/></g><g clip-path="url(#dbe4910fbd)"><path fill="#f6f6f6" d="M 783.21875 354.527344 L 808.503906 354.527344 L 808.503906 379.84375 L 783.21875 379.84375 Z M 783.21875 354.527344 " fill-opacity="1" fill-rule="nonzero"/></g><g clip-path="url(#0e2b50e047)"><path fill="#000000" d="M 808.335938 354.527344 L 833.621094 354.527344 L 833.621094 379.84375 L 808.335938 379.84375 Z M 808.335938 354.527344 " fill-opacity="1" fill-rule="nonzero"/></g><g clip-path="url(#e35b37eef2)"><path fill="#f6f6f6" d="M 833.621094 354.527344 L 858.90625 354.527344 L 858.90625 379.84375 L 833.621094 379.84375 Z M 833.621094 354.527344 " fill-opacity="1" fill-rule="nonzero"/></g><g clip-path="url(#3920c65ebb)"><path fill="#000000" d="M 858.738281 354.527344 L 884.023438 354.527344 L 884.023438 379.84375 L 858.738281 379.84375 Z M 858.738281 354.527344 " fill-opacity="1" fill-rule="nonzero"/></g><g clip-path="url(#ef120809fc)"><path fill="#f6f6f6" d="M 884.023438 354.527344 L 909.308594 354.527344 L 909.308594 379.84375 L 884.023438 379.84375 Z M 884.023438 354.527344 " fill-opacity="1" fill-rule="nonzero"/></g><g clip-path="url(#202371558c)"><path fill="#000000" d="M 909.144531 354.527344 L 934.429688 354.527344 L 934.429688 379.84375 L 909.144531 379.84375 Z M 909.144531 354.527344 " fill-opacity="1" fill-rule="nonzero"/></g><g clip-path="url(#5a553ce7d6)"><path fill="#f6f6f6" d="M 934.429688 354.527344 L 959.714844 354.527344 L 959.714844 379.84375 L 934.429688 379.84375 Z M 934.429688 354.527344 " fill-opacity="1" fill-rule="nonzero"/></g><g clip-path="url(#d389bfe161)"><path fill="#000000" d="M 959.546875 354.527344 L 984.832031 354.527344 L 984.832031 379.84375 L 959.546875 379.84375 Z M 959.546875 354.527344 " fill-opacity="1" fill-rule="nonzero"/></g><g clip-path="url(#cdf115ecef)"><path fill="#f6f6f6" d="M 984.832031 354.527344 L 1010.117188 354.527344 L 1010.117188 379.84375 L 984.832031 379.84375 Z M 984.832031 354.527344 " fill-opacity="1" fill-rule="nonzero"/></g><g clip-path="url(#bff0743be6)"><path fill="#000000" d="M 1009.953125 354.527344 L 1035.238281 354.527344 L 1035.238281 379.84375 L 1009.953125 379.84375 Z M 1009.953125 354.527344 " fill-opacity="1" fill-rule="nonzero"/></g><g clip-path="url(#9ba4b96094)"><path fill="#f6f6f6" d="M 1035.238281 354.527344 L 1060.523438 354.527344 L 1060.523438 379.84375 L 1035.238281 379.84375 Z M 1035.238281 354.527344 " fill-opacity="1" fill-rule="nonzero"/></g><g clip-path="url(#d7f6900375)"><path fill="#000000" d="M 1060.355469 354.527344 L 1085.640625 354.527344 L 1085.640625 379.84375 L 1060.355469 379.84375 Z M 1060.355469 354.527344 " fill-opacity="1" fill-rule="nonzero"/></g><g clip-path="url(#91e407be7e)"><path fill="#f6f6f6" d="M 1085.640625 354.527344 L 1110.925781 354.527344 L 1110.925781 379.84375 L 1085.640625 379.84375 Z M 1085.640625 354.527344 " fill-opacity="1" fill-rule="nonzero"/></g><g clip-path="url(#46dec738eb)"><path fill="#000000" d="M 1110.761719 354.527344 L 1136.046875 354.527344 L 1136.046875 379.84375 L 1110.761719 379.84375 Z M 1110.761719 354.527344 " fill-opacity="1" fill-rule="nonzero"/></g><g clip-path="url(#de556a1089)"><path fill="#f6f6f6" d="M 304.296875 379.84375 L 329.582031 379.84375 L 329.582031 405.160156 L 304.296875 405.160156 Z M 304.296875 379.84375 " fill-opacity="1" fill-rule="nonzero"/></g><path fill="#000000" d="M 329.582031 379.84375 L 354.867188 379.84375 L 354.867188 405.160156 L 329.582031 405.160156 Z M 329.582031 379.84375 " fill-opacity="1" fill-rule="nonzero"/><path fill="#f6f6f6" d="M 354.699219 379.84375 L 379.984375 379.84375 L 379.984375 405.160156 L 354.699219 405.160156 Z M 354.699219 379.84375 " fill-opacity="1" fill-rule="nonzero"/><path fill="#000000" d="M 379.984375 379.84375 L 405.269531 379.84375 L 405.269531 405.160156 L 379.984375 405.160156 Z M 379.984375 379.84375 " fill-opacity="1" fill-rule="nonzero"/><path fill="#f6f6f6" d="M 405.105469 379.84375 L 430.390625 379.84375 L 430.390625 405.160156 L 405.105469 405.160156 Z M 405.105469 379.84375 " fill-opacity="1" fill-rule="nonzero"/><path fill="#000000" d="M 430.390625 379.84375 L 455.675781 379.84375 L 455.675781 405.160156 L 430.390625 405.160156 Z M 430.390625 379.84375 " fill-opacity="1" fill-rule="nonzero"/><path fill="#f6f6f6" d="M 455.507812 379.84375 L 480.792969 379.84375 L 480.792969 405.160156 L 455.507812 405.160156 Z M 455.507812 379.84375 " fill-opacity="1" fill-rule="nonzero"/><path fill="#000000" d="M 480.792969 379.84375 L 506.078125 379.84375 L 506.078125 405.160156 L 480.792969 405.160156 Z M 480.792969 379.84375 " fill-opacity="1" fill-rule="nonzero"/><path fill="#f6f6f6" d="M 505.910156 379.84375 L 531.195312 379.84375 L 531.195312 405.160156 L 505.910156 405.160156 Z M 505.910156 379.84375 " fill-opacity="1" fill-rule="nonzero"/><path fill="#000000" d="M 531.195312 379.84375 L 556.480469 379.84375 L 556.480469 405.160156 L 531.195312 405.160156 Z M 531.195312 379.84375 " fill-opacity="1" fill-rule="nonzero"/><path fill="#f6f6f6" d="M 556.316406 379.84375 L 581.601562 379.84375 L 581.601562 405.160156 L 556.316406 405.160156 Z M 556.316406 379.84375 " fill-opacity="1" fill-rule="nonzero"/><path fill="#000000" d="M 581.601562 379.84375 L 606.886719 379.84375 L 606.886719 405.160156 L 581.601562 405.160156 Z M 581.601562 379.84375 " fill-opacity="1" fill-rule="nonzero"/><path fill="#f6f6f6" d="M 606.71875 379.84375 L 632.003906 379.84375 L 632.003906 405.160156 L 606.71875 405.160156 Z M 606.71875 379.84375 " fill-opacity="1" fill-rule="nonzero"/><path fill="#000000" d="M 632.003906 379.84375 L 657.289062 379.84375 L 657.289062 405.160156 L 632.003906 405.160156 Z M 632.003906 379.84375 " fill-opacity="1" fill-rule="nonzero"/><path fill="#f6f6f6" d="M 657.125 379.84375 L 682.410156 379.84375 L 682.410156 405.160156 L 657.125 405.160156 Z M 657.125 379.84375 " fill-opacity="1" fill-rule="nonzero"/><path fill="#000000" d="M 682.410156 379.84375 L 707.695312 379.84375 L 707.695312 405.160156 L 682.410156 405.160156 Z M 682.410156 379.84375 " fill-opacity="1" fill-rule="nonzero"/><path fill="#f6f6f6" d="M 707.527344 379.84375 L 732.8125 379.84375 L 732.8125 405.160156 L 707.527344 405.160156 Z M 707.527344 379.84375 " fill-opacity="1" fill-rule="nonzero"/><path fill="#000000" d="M 732.8125 379.84375 L 758.097656 379.84375 L 758.097656 405.160156 L 732.8125 405.160156 Z M 732.8125 379.84375 " fill-opacity="1" fill-rule="nonzero"/><path fill="#f6f6f6" d="M 757.933594 379.84375 L 783.21875 379.84375 L 783.21875 405.160156 L 757.933594 405.160156 Z M 757.933594 379.84375 " fill-opacity="1" fill-rule="nonzero"/><path fill="#000000" d="M 783.21875 379.84375 L 808.503906 379.84375 L 808.503906 405.160156 L 783.21875 405.160156 Z M 783.21875 379.84375 " fill-opacity="1" fill-rule="nonzero"/><path fill="#f6f6f6" d="M 808.335938 379.84375 L 833.621094 379.84375 L 833.621094 405.160156 L 808.335938 405.160156 Z M 808.335938 379.84375 " fill-opacity="1" fill-rule="nonzero"/><path fill="#000000" d="M 833.621094 379.84375 L 858.90625 379.84375 L 858.90625 405.160156 L 833.621094 405.160156 Z M 833.621094 379.84375 " fill-opacity="1" fill-rule="nonzero"/><path fill="#f6f6f6" d="M 858.738281 379.84375 L 884.023438 379.84375 L 884.023438 405.160156 L 858.738281 405.160156 Z M 858.738281 379.84375 " fill-opacity="1" fill-rule="nonzero"/><path fill="#000000" d="M 884.023438 379.84375 L 909.308594 379.84375 L 909.308594 405.160156 L 884.023438 405.160156 Z M 884.023438 379.84375 " fill-opacity="1" fill-rule="nonzero"/><path fill="#f6f6f6" d="M 909.144531 379.84375 L 934.429688 379.84375 L 934.429688 405.160156 L 909.144531 405.160156 Z M 909.144531 379.84375 " fill-opacity="1" fill-rule="nonzero"/><path fill="#000000" d="M 934.429688 379.84375 L 959.714844 379.84375 L 959.714844 405.160156 L 934.429688 405.160156 Z M 934.429688 379.84375 " fill-opacity="1" fill-rule="nonzero"/><path fill="#f6f6f6" d="M 959.546875 379.84375 L 984.832031 379.84375 L 984.832031 405.160156 L 959.546875 405.160156 Z M 959.546875 379.84375 " fill-opacity="1" fill-rule="nonzero"/><path fill="#000000" d="M 984.832031 379.84375 L 1010.117188 379.84375 L 1010.117188 405.160156 L 984.832031 405.160156 Z M 984.832031 379.84375 " fill-opacity="1" fill-rule="nonzero"/><path fill="#f6f6f6" d="M 1009.953125 379.84375 L 1035.238281 379.84375 L 1035.238281 405.160156 L 1009.953125 405.160156 Z M 1009.953125 379.84375 " fill-opacity="1" fill-rule="nonzero"/><path fill="#000000" d="M 1035.238281 379.84375 L 1060.523438 379.84375 L 1060.523438 405.160156 L 1035.238281 405.160156 Z M 1035.238281 379.84375 " fill-opacity="1" fill-rule="nonzero"/><path fill="#f6f6f6" d="M 1060.355469 379.84375 L 1085.640625 379.84375 L 1085.640625 405.160156 L 1060.355469 405.160156 Z M 1060.355469 379.84375 " fill-opacity="1" fill-rule="nonzero"/><path fill="#000000" d="M 1085.640625 379.84375 L 1110.925781 379.84375 L 1110.925781 405.160156 L 1085.640625 405.160156 Z M 1085.640625 379.84375 " fill-opacity="1" fill-rule="nonzero"/><g clip-path="url(#bc1481ddd7)"><path fill="#f6f6f6" d="M 1110.761719 379.84375 L 1136.046875 379.84375 L 1136.046875 405.160156 L 1110.761719 405.160156 Z M 1110.761719 379.84375 " fill-opacity="1" fill-rule="nonzero"/></g><g clip-path="url(#ae58569943)"><path fill="#000000" d="M 304.296875 404.992188 L 329.582031 404.992188 L 329.582031 430.308594 L 304.296875 430.308594 Z M 304.296875 404.992188 " fill-opacity="1" fill-rule="nonzero"/></g><path fill="#f6f6f6" d="M 329.582031 404.992188 L 354.867188 404.992188 L 354.867188 430.308594 L 329.582031 430.308594 Z M 329.582031 404.992188 " fill-opacity="1" fill-rule="nonzero"/><path fill="#000000" d="M 354.699219 404.992188 L 379.984375 404.992188 L 379.984375 430.308594 L 354.699219 430.308594 Z M 354.699219 404.992188 " fill-opacity="1" fill-rule="nonzero"/><path fill="#f6f6f6" d="M 379.984375 404.992188 L 405.269531 404.992188 L 405.269531 430.308594 L 379.984375 430.308594 Z M 379.984375 404.992188 " fill-opacity="1" fill-rule="nonzero"/><path fill="#000000" d="M 405.105469 404.992188 L 430.390625 404.992188 L 430.390625 430.308594 L 405.105469 430.308594 Z M 405.105469 404.992188 " fill-opacity="1" fill-rule="nonzero"/><path fill="#f6f6f6" d="M 430.390625 404.992188 L 455.675781 404.992188 L 455.675781 430.308594 L 430.390625 430.308594 Z M 430.390625 404.992188 " fill-opacity="1" fill-rule="nonzero"/><path fill="#000000" d="M 455.507812 404.992188 L 480.792969 404.992188 L 480.792969 430.308594 L 455.507812 430.308594 Z M 455.507812 404.992188 " fill-opacity="1" fill-rule="nonzero"/><path fill="#f6f6f6" d="M 480.792969 404.992188 L 506.078125 404.992188 L 506.078125 430.308594 L 480.792969 430.308594 Z M 480.792969 404.992188 " fill-opacity="1" fill-rule="nonzero"/><path fill="#000000" d="M 505.910156 404.992188 L 531.195312 404.992188 L 531.195312 430.308594 L 505.910156 430.308594 Z M 505.910156 404.992188 " fill-opacity="1" fill-rule="nonzero"/><path fill="#f6f6f6" d="M 531.195312 404.992188 L 556.480469 404.992188 L 556.480469 430.308594 L 531.195312 430.308594 Z M 531.195312 404.992188 " fill-opacity="1" fill-rule="nonzero"/><path fill="#000000" d="M 556.316406 404.992188 L 581.601562 404.992188 L 581.601562 430.308594 L 556.316406 430.308594 Z M 556.316406 404.992188 " fill-opacity="1" fill-rule="nonzero"/><path fill="#f6f6f6" d="M 581.601562 404.992188 L 606.886719 404.992188 L 606.886719 430.308594 L 581.601562 430.308594 Z M 581.601562 404.992188 " fill-opacity="1" fill-rule="nonzero"/><path fill="#000000" d="M 606.71875 404.992188 L 632.003906 404.992188 L 632.003906 430.308594 L 606.71875 430.308594 Z M 606.71875 404.992188 " fill-opacity="1" fill-rule="nonzero"/><path fill="#f6f6f6" d="M 632.003906 404.992188 L 657.289062 404.992188 L 657.289062 430.308594 L 632.003906 430.308594 Z M 632.003906 404.992188 " fill-opacity="1" fill-rule="nonzero"/><path fill="#000000" d="M 657.125 404.992188 L 682.410156 404.992188 L 682.410156 430.308594 L 657.125 430.308594 Z M 657.125 404.992188 " fill-opacity="1" fill-rule="nonzero"/><path fill="#f6f6f6" d="M 682.410156 404.992188 L 707.695312 404.992188 L 707.695312 430.308594 L 682.410156 430.308594 Z M 682.410156 404.992188 " fill-opacity="1" fill-rule="nonzero"/><path fill="#000000" d="M 707.527344 404.992188 L 732.8125 404.992188 L 732.8125 430.308594 L 707.527344 430.308594 Z M 707.527344 404.992188 " fill-opacity="1" fill-rule="nonzero"/><path fill="#f6f6f6" d="M 732.8125 404.992188 L 758.097656 404.992188 L 758.097656 430.308594 L 732.8125 430.308594 Z M 732.8125 404.992188 " fill-opacity="1" fill-rule="nonzero"/><path fill="#000000" d="M 757.933594 404.992188 L 783.21875 404.992188 L 783.21875 430.308594 L 757.933594 430.308594 Z M 757.933594 404.992188 " fill-opacity="1" fill-rule="nonzero"/><path fill="#f6f6f6" d="M 783.21875 404.992188 L 808.503906 404.992188 L 808.503906 430.308594 L 783.21875 430.308594 Z M 783.21875 404.992188 " fill-opacity="1" fill-rule="nonzero"/><path fill="#000000" d="M 808.335938 404.992188 L 833.621094 404.992188 L 833.621094 430.308594 L 808.335938 430.308594 Z M 808.335938 404.992188 " fill-opacity="1" fill-rule="nonzero"/><path fill="#f6f6f6" d="M 833.621094 404.992188 L 858.90625 404.992188 L 858.90625 430.308594 L 833.621094 430.308594 Z M 833.621094 404.992188 " fill-opacity="1" fill-rule="nonzero"/><path fill="#000000" d="M 858.738281 404.992188 L 884.023438 404.992188 L 884.023438 430.308594 L 858.738281 430.308594 Z M 858.738281 404.992188 " fill-opacity="1" fill-rule="nonzero"/><path fill="#f6f6f6" d="M 884.023438 404.992188 L 909.308594 404.992188 L 909.308594 430.308594 L 884.023438 430.308594 Z M 884.023438 404.992188 " fill-opacity="1" fill-rule="nonzero"/><path fill="#000000" d="M 909.144531 404.992188 L 934.429688 404.992188 L 934.429688 430.308594 L 909.144531 430.308594 Z M 909.144531 404.992188 " fill-opacity="1" fill-rule="nonzero"/><path fill="#f6f6f6" d="M 934.429688 404.992188 L 959.714844 404.992188 L 959.714844 430.308594 L 934.429688 430.308594 Z M 934.429688 404.992188 " fill-opacity="1" fill-rule="nonzero"/><path fill="#000000" d="M 959.546875 404.992188 L 984.832031 404.992188 L 984.832031 430.308594 L 959.546875 430.308594 Z M 959.546875 404.992188 " fill-opacity="1" fill-rule="nonzero"/><path fill="#f6f6f6" d="M 984.832031 404.992188 L 1010.117188 404.992188 L 1010.117188 430.308594 L 984.832031 430.308594 Z M 984.832031 404.992188 " fill-opacity="1" fill-rule="nonzero"/><path fill="#000000" d="M 1009.953125 404.992188 L 1035.238281 404.992188 L 1035.238281 430.308594 L 1009.953125 430.308594 Z M 1009.953125 404.992188 " fill-opacity="1" fill-rule="nonzero"/><path fill="#f6f6f6" d="M 1035.238281 404.992188 L 1060.523438 404.992188 L 1060.523438 430.308594 L 1035.238281 430.308594 Z M 1035.238281 404.992188 " fill-opacity="1" fill-rule="nonzero"/><path fill="#000000" d="M 1060.355469 404.992188 L 1085.640625 404.992188 L 1085.640625 430.308594 L 1060.355469 430.308594 Z M 1060.355469 404.992188 " fill-opacity="1" fill-rule="nonzero"/><path fill="#f6f6f6" d="M 1085.640625 404.992188 L 1110.925781 404.992188 L 1110.925781 430.308594 L 1085.640625 430.308594 Z M 1085.640625 404.992188 " fill-opacity="1" fill-rule="nonzero"/><g clip-path="url(#cb68451f26)"><path fill="#000000" d="M 1110.761719 404.992188 L 1136.046875 404.992188 L 1136.046875 430.308594 L 1110.761719 430.308594 Z M 1110.761719 404.992188 " fill-opacity="1" fill-rule="nonzero"/></g><g clip-path="url(#9027ce9969)"><path fill="#f6f6f6" d="M 304.296875 430.308594 L 329.582031 430.308594 L 329.582031 455.625 L 304.296875 455.625 Z M 304.296875 430.308594 " fill-opacity="1" fill-rule="nonzero"/></g><path fill="#000000" d="M 329.582031 430.308594 L 354.867188 430.308594 L 354.867188 455.625 L 329.582031 455.625 Z M 329.582031 430.308594 " fill-opacity="1" fill-rule="nonzero"/><path fill="#f6f6f6" d="M 354.699219 430.308594 L 379.984375 430.308594 L 379.984375 455.625 L 354.699219 455.625 Z M 354.699219 430.308594 " fill-opacity="1" fill-rule="nonzero"/><path fill="#000000" d="M 379.984375 430.308594 L 405.269531 430.308594 L 405.269531 455.625 L 379.984375 455.625 Z M 379.984375 430.308594 " fill-opacity="1" fill-rule="nonzero"/><path fill="#f6f6f6" d="M 405.105469 430.308594 L 430.390625 430.308594 L 430.390625 455.625 L 405.105469 455.625 Z M 405.105469 430.308594 " fill-opacity="1" fill-rule="nonzero"/><path fill="#000000" d="M 430.390625 430.308594 L 455.675781 430.308594 L 455.675781 455.625 L 430.390625 455.625 Z M 430.390625 430.308594 " fill-opacity="1" fill-rule="nonzero"/><path fill="#f6f6f6" d="M 455.507812 430.308594 L 480.792969 430.308594 L 480.792969 455.625 L 455.507812 455.625 Z M 455.507812 430.308594 " fill-opacity="1" fill-rule="nonzero"/><path fill="#000000" d="M 480.792969 430.308594 L 506.078125 430.308594 L 506.078125 455.625 L 480.792969 455.625 Z M 480.792969 430.308594 " fill-opacity="1" fill-rule="nonzero"/><path fill="#f6f6f6" d="M 505.910156 430.308594 L 531.195312 430.308594 L 531.195312 455.625 L 505.910156 455.625 Z M 505.910156 430.308594 " fill-opacity="1" fill-rule="nonzero"/><path fill="#000000" d="M 531.195312 430.308594 L 556.480469 430.308594 L 556.480469 455.625 L 531.195312 455.625 Z M 531.195312 430.308594 " fill-opacity="1" fill-rule="nonzero"/><path fill="#f6f6f6" d="M 556.316406 430.308594 L 581.601562 430.308594 L 581.601562 455.625 L 556.316406 455.625 Z M 556.316406 430.308594 " fill-opacity="1" fill-rule="nonzero"/><path fill="#000000" d="M 581.601562 430.308594 L 606.886719 430.308594 L 606.886719 455.625 L 581.601562 455.625 Z M 581.601562 430.308594 " fill-opacity="1" fill-rule="nonzero"/><path fill="#f6f6f6" d="M 606.71875 430.308594 L 632.003906 430.308594 L 632.003906 455.625 L 606.71875 455.625 Z M 606.71875 430.308594 " fill-opacity="1" fill-rule="nonzero"/><path fill="#000000" d="M 632.003906 430.308594 L 657.289062 430.308594 L 657.289062 455.625 L 632.003906 455.625 Z M 632.003906 430.308594 " fill-opacity="1" fill-rule="nonzero"/><path fill="#f6f6f6" d="M 657.125 430.308594 L 682.410156 430.308594 L 682.410156 455.625 L 657.125 455.625 Z M 657.125 430.308594 " fill-opacity="1" fill-rule="nonzero"/><path fill="#000000" d="M 682.410156 430.308594 L 707.695312 430.308594 L 707.695312 455.625 L 682.410156 455.625 Z M 682.410156 430.308594 " fill-opacity="1" fill-rule="nonzero"/><path fill="#f6f6f6" d="M 707.527344 430.308594 L 732.8125 430.308594 L 732.8125 455.625 L 707.527344 455.625 Z M 707.527344 430.308594 " fill-opacity="1" fill-rule="nonzero"/><path fill="#000000" d="M 732.8125 430.308594 L 758.097656 430.308594 L 758.097656 455.625 L 732.8125 455.625 Z M 732.8125 430.308594 " fill-opacity="1" fill-rule="nonzero"/><path fill="#f6f6f6" d="M 757.933594 430.308594 L 783.21875 430.308594 L 783.21875 455.625 L 757.933594 455.625 Z M 757.933594 430.308594 " fill-opacity="1" fill-rule="nonzero"/><path fill="#000000" d="M 783.21875 430.308594 L 808.503906 430.308594 L 808.503906 455.625 L 783.21875 455.625 Z M 783.21875 430.308594 " fill-opacity="1" fill-rule="nonzero"/><path fill="#f6f6f6" d="M 808.335938 430.308594 L 833.621094 430.308594 L 833.621094 455.625 L 808.335938 455.625 Z M 808.335938 430.308594 " fill-opacity="1" fill-rule="nonzero"/><path fill="#000000" d="M 833.621094 430.308594 L 858.90625 430.308594 L 858.90625 455.625 L 833.621094 455.625 Z M 833.621094 430.308594 " fill-opacity="1" fill-rule="nonzero"/><path fill="#f6f6f6" d="M 858.738281 430.308594 L 884.023438 430.308594 L 884.023438 455.625 L 858.738281 455.625 Z M 858.738281 430.308594 " fill-opacity="1" fill-rule="nonzero"/><path fill="#000000" d="M 884.023438 430.308594 L 909.308594 430.308594 L 909.308594 455.625 L 884.023438 455.625 Z M 884.023438 430.308594 " fill-opacity="1" fill-rule="nonzero"/><path fill="#f6f6f6" d="M 909.144531 430.308594 L 934.429688 430.308594 L 934.429688 455.625 L 909.144531 455.625 Z M 909.144531 430.308594 " fill-opacity="1" fill-rule="nonzero"/><path fill="#000000" d="M 934.429688 430.308594 L 959.714844 430.308594 L 959.714844 455.625 L 934.429688 455.625 Z M 934.429688 430.308594 " fill-opacity="1" fill-rule="nonzero"/><path fill="#f6f6f6" d="M 959.546875 430.308594 L 984.832031 430.308594 L 984.832031 455.625 L 959.546875 455.625 Z M 959.546875 430.308594 " fill-opacity="1" fill-rule="nonzero"/><path fill="#000000" d="M 984.832031 430.308594 L 1010.117188 430.308594 L 1010.117188 455.625 L 984.832031 455.625 Z M 984.832031 430.308594 " fill-opacity="1" fill-rule="nonzero"/><path fill="#f6f6f6" d="M 1009.953125 430.308594 L 1035.238281 430.308594 L 1035.238281 455.625 L 1009.953125 455.625 Z M 1009.953125 430.308594 " fill-opacity="1" fill-rule="nonzero"/><path fill="#000000" d="M 1035.238281 430.308594 L 1060.523438 430.308594 L 1060.523438 455.625 L 1035.238281 455.625 Z M 1035.238281 430.308594 " fill-opacity="1" fill-rule="nonzero"/><path fill="#f6f6f6" d="M 1060.355469 430.308594 L 1085.640625 430.308594 L 1085.640625 455.625 L 1060.355469 455.625 Z M 1060.355469 430.308594 " fill-opacity="1" fill-rule="nonzero"/><path fill="#000000" d="M 1085.640625 430.308594 L 1110.925781 430.308594 L 1110.925781 455.625 L 1085.640625 455.625 Z M 1085.640625 430.308594 " fill-opacity="1" fill-rule="nonzero"/><g clip-path="url(#27b08d6053)"><path fill="#f6f6f6" d="M 1110.761719 430.308594 L 1136.046875 430.308594 L 1136.046875 455.625 L 1110.761719 455.625 Z M 1110.761719 430.308594 " fill-opacity="1" fill-rule="nonzero"/></g><g clip-path="url(#6d4ad6f84e)"><path fill="#000000" d="M 304.296875 302.855469 L 329.582031 302.855469 L 329.582031 328.171875 L 304.296875 328.171875 Z M 304.296875 302.855469 " fill-opacity="1" fill-rule="nonzero"/></g><g clip-path="url(#83f081f6a0)"><path fill="#f6f6f6" d="M 329.582031 302.855469 L 354.867188 302.855469 L 354.867188 328.171875 L 329.582031 328.171875 Z M 329.582031 302.855469 " fill-opacity="1" fill-rule="nonzero"/></g><g clip-path="url(#7ce8a6939f)"><path fill="#000000" d="M 354.699219 302.855469 L 379.984375 302.855469 L 379.984375 328.171875 L 354.699219 328.171875 Z M 354.699219 302.855469 " fill-opacity="1" fill-rule="nonzero"/></g><g clip-path="url(#daf047e704)"><path fill="#f6f6f6" d="M 379.984375 302.855469 L 405.269531 302.855469 L 405.269531 328.171875 L 379.984375 328.171875 Z M 379.984375 302.855469 " fill-opacity="1" fill-rule="nonzero"/></g><g clip-path="url(#18a3d5ffb2)"><path fill="#000000" d="M 405.105469 302.855469 L 430.390625 302.855469 L 430.390625 328.171875 L 405.105469 328.171875 Z M 405.105469 302.855469 " fill-opacity="1" fill-rule="nonzero"/></g><g clip-path="url(#a9ead31df4)"><path fill="#f6f6f6" d="M 430.390625 302.855469 L 455.675781 302.855469 L 455.675781 328.171875 L 430.390625 328.171875 Z M 430.390625 302.855469 " fill-opacity="1" fill-rule="nonzero"/></g><g clip-path="url(#edd1a4d37a)"><path fill="#000000" d="M 455.507812 302.855469 L 480.792969 302.855469 L 480.792969 328.171875 L 455.507812 328.171875 Z M 455.507812 302.855469 " fill-opacity="1" fill-rule="nonzero"/></g><g clip-path="url(#8749587f4a)"><path fill="#f6f6f6" d="M 480.792969 302.855469 L 506.078125 302.855469 L 506.078125 328.171875 L 480.792969 328.171875 Z M 480.792969 302.855469 " fill-opacity="1" fill-rule="nonzero"/></g><g clip-path="url(#4caee1a22c)"><path fill="#000000" d="M 505.910156 302.855469 L 531.195312 302.855469 L 531.195312 328.171875 L 505.910156 328.171875 Z M 505.910156 302.855469 " fill-opacity="1" fill-rule="nonzero"/></g><g clip-path="url(#da4415122f)"><path fill="#f6f6f6" d="M 531.195312 302.855469 L 556.480469 302.855469 L 556.480469 328.171875 L 531.195312 328.171875 Z M 531.195312 302.855469 " fill-opacity="1" fill-rule="nonzero"/></g><g clip-path="url(#e6eff4ec75)"><path fill="#000000" d="M 556.316406 302.855469 L 581.601562 302.855469 L 581.601562 328.171875 L 556.316406 328.171875 Z M 556.316406 302.855469 " fill-opacity="1" fill-rule="nonzero"/></g><g clip-path="url(#f724306c1b)"><path fill="#f6f6f6" d="M 581.601562 302.855469 L 606.886719 302.855469 L 606.886719 328.171875 L 581.601562 328.171875 Z M 581.601562 302.855469 " fill-opacity="1" fill-rule="nonzero"/></g><g clip-path="url(#32696cdc2e)"><path fill="#000000" d="M 606.71875 302.855469 L 632.003906 302.855469 L 632.003906 328.171875 L 606.71875 328.171875 Z M 606.71875 302.855469 " fill-opacity="1" fill-rule="nonzero"/></g><g clip-path="url(#58a6e4c086)"><path fill="#f6f6f6" d="M 632.003906 302.855469 L 657.289062 302.855469 L 657.289062 328.171875 L 632.003906 328.171875 Z M 632.003906 302.855469 " fill-opacity="1" fill-rule="nonzero"/></g><g clip-path="url(#66409e0ccb)"><path fill="#000000" d="M 657.125 302.855469 L 682.410156 302.855469 L 682.410156 328.171875 L 657.125 328.171875 Z M 657.125 302.855469 " fill-opacity="1" fill-rule="nonzero"/></g><g clip-path="url(#3154db8732)"><path fill="#f6f6f6" d="M 682.410156 302.855469 L 707.695312 302.855469 L 707.695312 328.171875 L 682.410156 328.171875 Z M 682.410156 302.855469 " fill-opacity="1" fill-rule="nonzero"/></g><g clip-path="url(#79e1435aaf)"><path fill="#000000" d="M 707.527344 302.855469 L 732.8125 302.855469 L 732.8125 328.171875 L 707.527344 328.171875 Z M 707.527344 302.855469 " fill-opacity="1" fill-rule="nonzero"/></g><g clip-path="url(#9bf74b177b)"><path fill="#f6f6f6" d="M 732.8125 302.855469 L 758.097656 302.855469 L 758.097656 328.171875 L 732.8125 328.171875 Z M 732.8125 302.855469 " fill-opacity="1" fill-rule="nonzero"/></g><g clip-path="url(#06547fa667)"><path fill="#000000" d="M 757.933594 302.855469 L 783.21875 302.855469 L 783.21875 328.171875 L 757.933594 328.171875 Z M 757.933594 302.855469 " fill-opacity="1" fill-rule="nonzero"/></g><g clip-path="url(#fb6ace13a6)"><path fill="#f6f6f6" d="M 783.21875 302.855469 L 808.503906 302.855469 L 808.503906 328.171875 L 783.21875 328.171875 Z M 783.21875 302.855469 " fill-opacity="1" fill-rule="nonzero"/></g><g clip-path="url(#cd722ddca1)"><path fill="#000000" d="M 808.335938 302.855469 L 833.621094 302.855469 L 833.621094 328.171875 L 808.335938 328.171875 Z M 808.335938 302.855469 " fill-opacity="1" fill-rule="nonzero"/></g><g clip-path="url(#e527fa90a9)"><path fill="#f6f6f6" d="M 833.621094 302.855469 L 858.90625 302.855469 L 858.90625 328.171875 L 833.621094 328.171875 Z M 833.621094 302.855469 " fill-opacity="1" fill-rule="nonzero"/></g><g clip-path="url(#00e7c6ce85)"><path fill="#000000" d="M 858.738281 302.855469 L 884.023438 302.855469 L 884.023438 328.171875 L 858.738281 328.171875 Z M 858.738281 302.855469 " fill-opacity="1" fill-rule="nonzero"/></g><g clip-path="url(#8e8b4fad33)"><path fill="#f6f6f6" d="M 884.023438 302.855469 L 909.308594 302.855469 L 909.308594 328.171875 L 884.023438 328.171875 Z M 884.023438 302.855469 " fill-opacity="1" fill-rule="nonzero"/></g><g clip-path="url(#3e5992197c)"><path fill="#000000" d="M 909.144531 302.855469 L 934.429688 302.855469 L 934.429688 328.171875 L 909.144531 328.171875 Z M 909.144531 302.855469 " fill-opacity="1" fill-rule="nonzero"/></g><g clip-path="url(#8912b66153)"><path fill="#f6f6f6" d="M 934.429688 302.855469 L 959.714844 302.855469 L 959.714844 328.171875 L 934.429688 328.171875 Z M 934.429688 302.855469 " fill-opacity="1" fill-rule="nonzero"/></g><g clip-path="url(#0b77ec240c)"><path fill="#000000" d="M 959.546875 302.855469 L 984.832031 302.855469 L 984.832031 328.171875 L 959.546875 328.171875 Z M 959.546875 302.855469 " fill-opacity="1" fill-rule="nonzero"/></g><g clip-path="url(#6ee67b9f3f)"><path fill="#f6f6f6" d="M 984.832031 302.855469 L 1010.117188 302.855469 L 1010.117188 328.171875 L 984.832031 328.171875 Z M 984.832031 302.855469 " fill-opacity="1" fill-rule="nonzero"/></g><g clip-path="url(#b66f1566dc)"><path fill="#000000" d="M 1009.953125 302.855469 L 1035.238281 302.855469 L 1035.238281 328.171875 L 1009.953125 328.171875 Z M 1009.953125 302.855469 " fill-opacity="1" fill-rule="nonzero"/></g><g clip-path="url(#348eb0244a)"><path fill="#f6f6f6" d="M 1035.238281 302.855469 L 1060.523438 302.855469 L 1060.523438 328.171875 L 1035.238281 328.171875 Z M 1035.238281 302.855469 " fill-opacity="1" fill-rule="nonzero"/></g><g clip-path="url(#16e0d41a27)"><path fill="#000000" d="M 1060.355469 302.855469 L 1085.640625 302.855469 L 1085.640625 328.171875 L 1060.355469 328.171875 Z M 1060.355469 302.855469 " fill-opacity="1" fill-rule="nonzero"/></g><g clip-path="url(#5cf0128524)"><path fill="#f6f6f6" d="M 1085.640625 302.855469 L 1110.925781 302.855469 L 1110.925781 328.171875 L 1085.640625 328.171875 Z M 1085.640625 302.855469 " fill-opacity="1" fill-rule="nonzero"/></g><g clip-path="url(#6ceb50fac4)"><path fill="#000000" d="M 1110.761719 302.855469 L 1136.046875 302.855469 L 1136.046875 328.171875 L 1110.761719 328.171875 Z M 1110.761719 302.855469 " fill-opacity="1" fill-rule="nonzero"/></g><g clip-path="url(#df864120c8)"><path fill="#f6f6f6" d="M 304.296875 328.171875 L 329.582031 328.171875 L 329.582031 353.484375 L 304.296875 353.484375 Z M 304.296875 328.171875 " fill-opacity="1" fill-rule="nonzero"/></g><path fill="#000000" d="M 329.582031 328.171875 L 354.867188 328.171875 L 354.867188 353.484375 L 329.582031 353.484375 Z M 329.582031 328.171875 " fill-opacity="1" fill-rule="nonzero"/><path fill="#f6f6f6" d="M 354.699219 328.171875 L 379.984375 328.171875 L 379.984375 353.484375 L 354.699219 353.484375 Z M 354.699219 328.171875 " fill-opacity="1" fill-rule="nonzero"/><path fill="#000000" d="M 379.984375 328.171875 L 405.269531 328.171875 L 405.269531 353.484375 L 379.984375 353.484375 Z M 379.984375 328.171875 " fill-opacity="1" fill-rule="nonzero"/><path fill="#f6f6f6" d="M 405.105469 328.171875 L 430.390625 328.171875 L 430.390625 353.484375 L 405.105469 353.484375 Z M 405.105469 328.171875 " fill-opacity="1" fill-rule="nonzero"/><path fill="#000000" d="M 430.390625 328.171875 L 455.675781 328.171875 L 455.675781 353.484375 L 430.390625 353.484375 Z M 430.390625 328.171875 " fill-opacity="1" fill-rule="nonzero"/><path fill="#f6f6f6" d="M 455.507812 328.171875 L 480.792969 328.171875 L 480.792969 353.484375 L 455.507812 353.484375 Z M 455.507812 328.171875 " fill-opacity="1" fill-rule="nonzero"/><path fill="#000000" d="M 480.792969 328.171875 L 506.078125 328.171875 L 506.078125 353.484375 L 480.792969 353.484375 Z M 480.792969 328.171875 " fill-opacity="1" fill-rule="nonzero"/><path fill="#f6f6f6" d="M 505.910156 328.171875 L 531.195312 328.171875 L 531.195312 353.484375 L 505.910156 353.484375 Z M 505.910156 328.171875 " fill-opacity="1" fill-rule="nonzero"/><path fill="#000000" d="M 531.195312 328.171875 L 556.480469 328.171875 L 556.480469 353.484375 L 531.195312 353.484375 Z M 531.195312 328.171875 " fill-opacity="1" fill-rule="nonzero"/><path fill="#f6f6f6" d="M 556.316406 328.171875 L 581.601562 328.171875 L 581.601562 353.484375 L 556.316406 353.484375 Z M 556.316406 328.171875 " fill-opacity="1" fill-rule="nonzero"/><path fill="#000000" d="M 581.601562 328.171875 L 606.886719 328.171875 L 606.886719 353.484375 L 581.601562 353.484375 Z M 581.601562 328.171875 " fill-opacity="1" fill-rule="nonzero"/><path fill="#f6f6f6" d="M 606.71875 328.171875 L 632.003906 328.171875 L 632.003906 353.484375 L 606.71875 353.484375 Z M 606.71875 328.171875 " fill-opacity="1" fill-rule="nonzero"/><path fill="#000000" d="M 632.003906 328.171875 L 657.289062 328.171875 L 657.289062 353.484375 L 632.003906 353.484375 Z M 632.003906 328.171875 " fill-opacity="1" fill-rule="nonzero"/><path fill="#f6f6f6" d="M 657.125 328.171875 L 682.410156 328.171875 L 682.410156 353.484375 L 657.125 353.484375 Z M 657.125 328.171875 " fill-opacity="1" fill-rule="nonzero"/><path fill="#000000" d="M 682.410156 328.171875 L 707.695312 328.171875 L 707.695312 353.484375 L 682.410156 353.484375 Z M 682.410156 328.171875 " fill-opacity="1" fill-rule="nonzero"/><path fill="#f6f6f6" d="M 707.527344 328.171875 L 732.8125 328.171875 L 732.8125 353.484375 L 707.527344 353.484375 Z M 707.527344 328.171875 " fill-opacity="1" fill-rule="nonzero"/><path fill="#000000" d="M 732.8125 328.171875 L 758.097656 328.171875 L 758.097656 353.484375 L 732.8125 353.484375 Z M 732.8125 328.171875 " fill-opacity="1" fill-rule="nonzero"/><path fill="#f6f6f6" d="M 757.933594 328.171875 L 783.21875 328.171875 L 783.21875 353.484375 L 757.933594 353.484375 Z M 757.933594 328.171875 " fill-opacity="1" fill-rule="nonzero"/><path fill="#000000" d="M 783.21875 328.171875 L 808.503906 328.171875 L 808.503906 353.484375 L 783.21875 353.484375 Z M 783.21875 328.171875 " fill-opacity="1" fill-rule="nonzero"/><path fill="#f6f6f6" d="M 808.335938 328.171875 L 833.621094 328.171875 L 833.621094 353.484375 L 808.335938 353.484375 Z M 808.335938 328.171875 " fill-opacity="1" fill-rule="nonzero"/><path fill="#000000" d="M 833.621094 328.171875 L 858.90625 328.171875 L 858.90625 353.484375 L 833.621094 353.484375 Z M 833.621094 328.171875 " fill-opacity="1" fill-rule="nonzero"/><path fill="#f6f6f6" d="M 858.738281 328.171875 L 884.023438 328.171875 L 884.023438 353.484375 L 858.738281 353.484375 Z M 858.738281 328.171875 " fill-opacity="1" fill-rule="nonzero"/><path fill="#000000" d="M 884.023438 328.171875 L 909.308594 328.171875 L 909.308594 353.484375 L 884.023438 353.484375 Z M 884.023438 328.171875 " fill-opacity="1" fill-rule="nonzero"/><path fill="#f6f6f6" d="M 909.144531 328.171875 L 934.429688 328.171875 L 934.429688 353.484375 L 909.144531 353.484375 Z M 909.144531 328.171875 " fill-opacity="1" fill-rule="nonzero"/><path fill="#000000" d="M 934.429688 328.171875 L 959.714844 328.171875 L 959.714844 353.484375 L 934.429688 353.484375 Z M 934.429688 328.171875 " fill-opacity="1" fill-rule="nonzero"/><path fill="#f6f6f6" d="M 959.546875 328.171875 L 984.832031 328.171875 L 984.832031 353.484375 L 959.546875 353.484375 Z M 959.546875 328.171875 " fill-opacity="1" fill-rule="nonzero"/><path fill="#000000" d="M 984.832031 328.171875 L 1010.117188 328.171875 L 1010.117188 353.484375 L 984.832031 353.484375 Z M 984.832031 328.171875 " fill-opacity="1" fill-rule="nonzero"/><path fill="#f6f6f6" d="M 1009.953125 328.171875 L 1035.238281 328.171875 L 1035.238281 353.484375 L 1009.953125 353.484375 Z M 1009.953125 328.171875 " fill-opacity="1" fill-rule="nonzero"/><path fill="#000000" d="M 1035.238281 328.171875 L 1060.523438 328.171875 L 1060.523438 353.484375 L 1035.238281 353.484375 Z M 1035.238281 328.171875 " fill-opacity="1" fill-rule="nonzero"/><path fill="#f6f6f6" d="M 1060.355469 328.171875 L 1085.640625 328.171875 L 1085.640625 353.484375 L 1060.355469 353.484375 Z M 1060.355469 328.171875 " fill-opacity="1" fill-rule="nonzero"/><path fill="#000000" d="M 1085.640625 328.171875 L 1110.925781 328.171875 L 1110.925781 353.484375 L 1085.640625 353.484375 Z M 1085.640625 328.171875 " fill-opacity="1" fill-rule="nonzero"/><g clip-path="url(#0c0c01decc)"><path fill="#f6f6f6" d="M 1110.761719 328.171875 L 1136.046875 328.171875 L 1136.046875 353.484375 L 1110.761719 353.484375 Z M 1110.761719 328.171875 " fill-opacity="1" fill-rule="nonzero"/></g><g clip-path="url(#f3f2188366)"><path fill="#000000" d="M 304.296875 353.320312 L 329.582031 353.320312 L 329.582031 378.632812 L 304.296875 378.632812 Z M 304.296875 353.320312 " fill-opacity="1" fill-rule="nonzero"/></g><path fill="#f6f6f6" d="M 329.582031 353.320312 L 354.867188 353.320312 L 354.867188 378.632812 L 329.582031 378.632812 Z M 329.582031 353.320312 " fill-opacity="1" fill-rule="nonzero"/><path fill="#000000" d="M 354.699219 353.320312 L 379.984375 353.320312 L 379.984375 378.632812 L 354.699219 378.632812 Z M 354.699219 353.320312 " fill-opacity="1" fill-rule="nonzero"/><path fill="#f6f6f6" d="M 379.984375 353.320312 L 405.269531 353.320312 L 405.269531 378.632812 L 379.984375 378.632812 Z M 379.984375 353.320312 " fill-opacity="1" fill-rule="nonzero"/><path fill="#000000" d="M 405.105469 353.320312 L 430.390625 353.320312 L 430.390625 378.632812 L 405.105469 378.632812 Z M 405.105469 353.320312 " fill-opacity="1" fill-rule="nonzero"/><path fill="#f6f6f6" d="M 430.390625 353.320312 L 455.675781 353.320312 L 455.675781 378.632812 L 430.390625 378.632812 Z M 430.390625 353.320312 " fill-opacity="1" fill-rule="nonzero"/><path fill="#000000" d="M 455.507812 353.320312 L 480.792969 353.320312 L 480.792969 378.632812 L 455.507812 378.632812 Z M 455.507812 353.320312 " fill-opacity="1" fill-rule="nonzero"/><path fill="#f6f6f6" d="M 480.792969 353.320312 L 506.078125 353.320312 L 506.078125 378.632812 L 480.792969 378.632812 Z M 480.792969 353.320312 " fill-opacity="1" fill-rule="nonzero"/><path fill="#000000" d="M 505.910156 353.320312 L 531.195312 353.320312 L 531.195312 378.632812 L 505.910156 378.632812 Z M 505.910156 353.320312 " fill-opacity="1" fill-rule="nonzero"/><path fill="#f6f6f6" d="M 531.195312 353.320312 L 556.480469 353.320312 L 556.480469 378.632812 L 531.195312 378.632812 Z M 531.195312 353.320312 " fill-opacity="1" fill-rule="nonzero"/><path fill="#000000" d="M 556.316406 353.320312 L 581.601562 353.320312 L 581.601562 378.632812 L 556.316406 378.632812 Z M 556.316406 353.320312 " fill-opacity="1" fill-rule="nonzero"/><path fill="#f6f6f6" d="M 581.601562 353.320312 L 606.886719 353.320312 L 606.886719 378.632812 L 581.601562 378.632812 Z M 581.601562 353.320312 " fill-opacity="1" fill-rule="nonzero"/><path fill="#000000" d="M 606.71875 353.320312 L 632.003906 353.320312 L 632.003906 378.632812 L 606.71875 378.632812 Z M 606.71875 353.320312 " fill-opacity="1" fill-rule="nonzero"/><path fill="#f6f6f6" d="M 632.003906 353.320312 L 657.289062 353.320312 L 657.289062 378.632812 L 632.003906 378.632812 Z M 632.003906 353.320312 " fill-opacity="1" fill-rule="nonzero"/><path fill="#000000" d="M 657.125 353.320312 L 682.410156 353.320312 L 682.410156 378.632812 L 657.125 378.632812 Z M 657.125 353.320312 " fill-opacity="1" fill-rule="nonzero"/><path fill="#f6f6f6" d="M 682.410156 353.320312 L 707.695312 353.320312 L 707.695312 378.632812 L 682.410156 378.632812 Z M 682.410156 353.320312 " fill-opacity="1" fill-rule="nonzero"/><path fill="#000000" d="M 707.527344 353.320312 L 732.8125 353.320312 L 732.8125 378.632812 L 707.527344 378.632812 Z M 707.527344 353.320312 " fill-opacity="1" fill-rule="nonzero"/><path fill="#f6f6f6" d="M 732.8125 353.320312 L 758.097656 353.320312 L 758.097656 378.632812 L 732.8125 378.632812 Z M 732.8125 353.320312 " fill-opacity="1" fill-rule="nonzero"/><path fill="#000000" d="M 757.933594 353.320312 L 783.21875 353.320312 L 783.21875 378.632812 L 757.933594 378.632812 Z M 757.933594 353.320312 " fill-opacity="1" fill-rule="nonzero"/><path fill="#f6f6f6" d="M 783.21875 353.320312 L 808.503906 353.320312 L 808.503906 378.632812 L 783.21875 378.632812 Z M 783.21875 353.320312 " fill-opacity="1" fill-rule="nonzero"/><path fill="#000000" d="M 808.335938 353.320312 L 833.621094 353.320312 L 833.621094 378.632812 L 808.335938 378.632812 Z M 808.335938 353.320312 " fill-opacity="1" fill-rule="nonzero"/><path fill="#f6f6f6" d="M 833.621094 353.320312 L 858.90625 353.320312 L 858.90625 378.632812 L 833.621094 378.632812 Z M 833.621094 353.320312 " fill-opacity="1" fill-rule="nonzero"/><path fill="#000000" d="M 858.738281 353.320312 L 884.023438 353.320312 L 884.023438 378.632812 L 858.738281 378.632812 Z M 858.738281 353.320312 " fill-opacity="1" fill-rule="nonzero"/><path fill="#f6f6f6" d="M 884.023438 353.320312 L 909.308594 353.320312 L 909.308594 378.632812 L 884.023438 378.632812 Z M 884.023438 353.320312 " fill-opacity="1" fill-rule="nonzero"/><path fill="#000000" d="M 909.144531 353.320312 L 934.429688 353.320312 L 934.429688 378.632812 L 909.144531 378.632812 Z M 909.144531 353.320312 " fill-opacity="1" fill-rule="nonzero"/><path fill="#f6f6f6" d="M 934.429688 353.320312 L 959.714844 353.320312 L 959.714844 378.632812 L 934.429688 378.632812 Z M 934.429688 353.320312 " fill-opacity="1" fill-rule="nonzero"/><path fill="#000000" d="M 959.546875 353.320312 L 984.832031 353.320312 L 984.832031 378.632812 L 959.546875 378.632812 Z M 959.546875 353.320312 " fill-opacity="1" fill-rule="nonzero"/><path fill="#f6f6f6" d="M 984.832031 353.320312 L 1010.117188 353.320312 L 1010.117188 378.632812 L 984.832031 378.632812 Z M 984.832031 353.320312 " fill-opacity="1" fill-rule="nonzero"/><path fill="#000000" d="M 1009.953125 353.320312 L 1035.238281 353.320312 L 1035.238281 378.632812 L 1009.953125 378.632812 Z M 1009.953125 353.320312 " fill-opacity="1" fill-rule="nonzero"/><path fill="#f6f6f6" d="M 1035.238281 353.320312 L 1060.523438 353.320312 L 1060.523438 378.632812 L 1035.238281 378.632812 Z M 1035.238281 353.320312 " fill-opacity="1" fill-rule="nonzero"/><path fill="#000000" d="M 1060.355469 353.320312 L 1085.640625 353.320312 L 1085.640625 378.632812 L 1060.355469 378.632812 Z M 1060.355469 353.320312 " fill-opacity="1" fill-rule="nonzero"/><path fill="#f6f6f6" d="M 1085.640625 353.320312 L 1110.925781 353.320312 L 1110.925781 378.632812 L 1085.640625 378.632812 Z M 1085.640625 353.320312 " fill-opacity="1" fill-rule="nonzero"/><g clip-path="url(#d0cad17ba9)"><path fill="#000000" d="M 1110.761719 353.320312 L 1136.046875 353.320312 L 1136.046875 378.632812 L 1110.761719 378.632812 Z M 1110.761719 353.320312 " fill-opacity="1" fill-rule="nonzero"/></g><g clip-path="url(#b149c6235d)"><path fill="#f6f6f6" d="M 304.296875 378.632812 L 329.582031 378.632812 L 329.582031 403.949219 L 304.296875 403.949219 Z M 304.296875 378.632812 " fill-opacity="1" fill-rule="nonzero"/></g><path fill="#000000" d="M 329.582031 378.632812 L 354.867188 378.632812 L 354.867188 403.949219 L 329.582031 403.949219 Z M 329.582031 378.632812 " fill-opacity="1" fill-rule="nonzero"/><path fill="#f6f6f6" d="M 354.699219 378.632812 L 379.984375 378.632812 L 379.984375 403.949219 L 354.699219 403.949219 Z M 354.699219 378.632812 " fill-opacity="1" fill-rule="nonzero"/><path fill="#000000" d="M 379.984375 378.632812 L 405.269531 378.632812 L 405.269531 403.949219 L 379.984375 403.949219 Z M 379.984375 378.632812 " fill-opacity="1" fill-rule="nonzero"/><path fill="#f6f6f6" d="M 405.105469 378.632812 L 430.390625 378.632812 L 430.390625 403.949219 L 405.105469 403.949219 Z M 405.105469 378.632812 " fill-opacity="1" fill-rule="nonzero"/><path fill="#000000" d="M 430.390625 378.632812 L 455.675781 378.632812 L 455.675781 403.949219 L 430.390625 403.949219 Z M 430.390625 378.632812 " fill-opacity="1" fill-rule="nonzero"/><path fill="#f6f6f6" d="M 455.507812 378.632812 L 480.792969 378.632812 L 480.792969 403.949219 L 455.507812 403.949219 Z M 455.507812 378.632812 " fill-opacity="1" fill-rule="nonzero"/><path fill="#000000" d="M 480.792969 378.632812 L 506.078125 378.632812 L 506.078125 403.949219 L 480.792969 403.949219 Z M 480.792969 378.632812 " fill-opacity="1" fill-rule="nonzero"/><path fill="#f6f6f6" d="M 505.910156 378.632812 L 531.195312 378.632812 L 531.195312 403.949219 L 505.910156 403.949219 Z M 505.910156 378.632812 " fill-opacity="1" fill-rule="nonzero"/><path fill="#000000" d="M 531.195312 378.632812 L 556.480469 378.632812 L 556.480469 403.949219 L 531.195312 403.949219 Z M 531.195312 378.632812 " fill-opacity="1" fill-rule="nonzero"/><path fill="#f6f6f6" d="M 556.316406 378.632812 L 581.601562 378.632812 L 581.601562 403.949219 L 556.316406 403.949219 Z M 556.316406 378.632812 " fill-opacity="1" fill-rule="nonzero"/><path fill="#000000" d="M 581.601562 378.632812 L 606.886719 378.632812 L 606.886719 403.949219 L 581.601562 403.949219 Z M 581.601562 378.632812 " fill-opacity="1" fill-rule="nonzero"/><path fill="#f6f6f6" d="M 606.71875 378.632812 L 632.003906 378.632812 L 632.003906 403.949219 L 606.71875 403.949219 Z M 606.71875 378.632812 " fill-opacity="1" fill-rule="nonzero"/><path fill="#000000" d="M 632.003906 378.632812 L 657.289062 378.632812 L 657.289062 403.949219 L 632.003906 403.949219 Z M 632.003906 378.632812 " fill-opacity="1" fill-rule="nonzero"/><path fill="#f6f6f6" d="M 657.125 378.632812 L 682.410156 378.632812 L 682.410156 403.949219 L 657.125 403.949219 Z M 657.125 378.632812 " fill-opacity="1" fill-rule="nonzero"/><path fill="#000000" d="M 682.410156 378.632812 L 707.695312 378.632812 L 707.695312 403.949219 L 682.410156 403.949219 Z M 682.410156 378.632812 " fill-opacity="1" fill-rule="nonzero"/><path fill="#f6f6f6" d="M 707.527344 378.632812 L 732.8125 378.632812 L 732.8125 403.949219 L 707.527344 403.949219 Z M 707.527344 378.632812 " fill-opacity="1" fill-rule="nonzero"/><path fill="#000000" d="M 732.8125 378.632812 L 758.097656 378.632812 L 758.097656 403.949219 L 732.8125 403.949219 Z M 732.8125 378.632812 " fill-opacity="1" fill-rule="nonzero"/><path fill="#f6f6f6" d="M 757.933594 378.632812 L 783.21875 378.632812 L 783.21875 403.949219 L 757.933594 403.949219 Z M 757.933594 378.632812 " fill-opacity="1" fill-rule="nonzero"/><path fill="#000000" d="M 783.21875 378.632812 L 808.503906 378.632812 L 808.503906 403.949219 L 783.21875 403.949219 Z M 783.21875 378.632812 " fill-opacity="1" fill-rule="nonzero"/><path fill="#f6f6f6" d="M 808.335938 378.632812 L 833.621094 378.632812 L 833.621094 403.949219 L 808.335938 403.949219 Z M 808.335938 378.632812 " fill-opacity="1" fill-rule="nonzero"/><path fill="#000000" d="M 833.621094 378.632812 L 858.90625 378.632812 L 858.90625 403.949219 L 833.621094 403.949219 Z M 833.621094 378.632812 " fill-opacity="1" fill-rule="nonzero"/><path fill="#f6f6f6" d="M 858.738281 378.632812 L 884.023438 378.632812 L 884.023438 403.949219 L 858.738281 403.949219 Z M 858.738281 378.632812 " fill-opacity="1" fill-rule="nonzero"/><path fill="#000000" d="M 884.023438 378.632812 L 909.308594 378.632812 L 909.308594 403.949219 L 884.023438 403.949219 Z M 884.023438 378.632812 " fill-opacity="1" fill-rule="nonzero"/><path fill="#f6f6f6" d="M 909.144531 378.632812 L 934.429688 378.632812 L 934.429688 403.949219 L 909.144531 403.949219 Z M 909.144531 378.632812 " fill-opacity="1" fill-rule="nonzero"/><path fill="#000000" d="M 934.429688 378.632812 L 959.714844 378.632812 L 959.714844 403.949219 L 934.429688 403.949219 Z M 934.429688 378.632812 " fill-opacity="1" fill-rule="nonzero"/><path fill="#f6f6f6" d="M 959.546875 378.632812 L 984.832031 378.632812 L 984.832031 403.949219 L 959.546875 403.949219 Z M 959.546875 378.632812 " fill-opacity="1" fill-rule="nonzero"/><path fill="#000000" d="M 984.832031 378.632812 L 1010.117188 378.632812 L 1010.117188 403.949219 L 984.832031 403.949219 Z M 984.832031 378.632812 " fill-opacity="1" fill-rule="nonzero"/><path fill="#f6f6f6" d="M 1009.953125 378.632812 L 1035.238281 378.632812 L 1035.238281 403.949219 L 1009.953125 403.949219 Z M 1009.953125 378.632812 " fill-opacity="1" fill-rule="nonzero"/><path fill="#000000" d="M 1035.238281 378.632812 L 1060.523438 378.632812 L 1060.523438 403.949219 L 1035.238281 403.949219 Z M 1035.238281 378.632812 " fill-opacity="1" fill-rule="nonzero"/><path fill="#f6f6f6" d="M 1060.355469 378.632812 L 1085.640625 378.632812 L 1085.640625 403.949219 L 1060.355469 403.949219 Z M 1060.355469 378.632812 " fill-opacity="1" fill-rule="nonzero"/><path fill="#000000" d="M 1085.640625 378.632812 L 1110.925781 378.632812 L 1110.925781 403.949219 L 1085.640625 403.949219 Z M 1085.640625 378.632812 " fill-opacity="1" fill-rule="nonzero"/><g clip-path="url(#b30d3e67f9)"><path fill="#f6f6f6" d="M 1110.761719 378.632812 L 1136.046875 378.632812 L 1136.046875 403.949219 L 1110.761719 403.949219 Z M 1110.761719 378.632812 " fill-opacity="1" fill-rule="nonzero"/></g></svg>